<svg id="visual" viewBox="0 0 900 600" width="900" height="600" xmlns="http://www.w3.org/2000/svg" xmlns:xlink="http://www.w3.org/1999/xlink" version="1.1"><rect x="0" y="0" width="900" height="600" fill="#001220"></rect><path d="M0 460L30 468C60 476 120 492 180 493.5C240 495 300 482 360 483C420 484 480 499 540 496.5C600 494 660 474 720 471.3C780 468.7 840 483.3 870 490.7L900 498L900 601L870 601C840 601 780 601 720 601C660 601 600 601 540 601C480 601 420 601 360 601C300 601 240 601 180 601C120 601 60 601 30 601L0 601Z" fill="#fa7268"></path><path d="M0 509L30 504C60 499 120 489 180 488.8C240 488.7 300 498.3 360 509C420 519.7 480 531.3 540 532.8C600 534.3 660 525.7 720 519.5C780 513.3 840 509.7 870 507.8L900 506L900 601L870 601C840 601 780 601 720 601C660 601 600 601 540 601C480 601 420 601 360 601C300 601 240 601 180 601C120 601 60 601 30 601L0 601Z" fill="#ef5f67"></path><path d="M0 525L30 523.3C60 521.7 120 518.3 180 523.7C240 529 300 543 360 548C420 553 480 549 540 548C600 547 660 549 720 545.3C780 541.7 840 532.3 870 527.7L900 523L900 601L870 601C840 601 780 601 720 601C660 601 600 601 540 601C480 601 420 601 360 601C300 601 240 601 180 601C120 601 60 601 30 601L0 601Z" fill="#e34c67"></path><path d="M0 535L30 534.3C60 533.7 120 532.3 180 534.2C240 536 300 541 360 541.3C420 541.7 480 537.3 540 541.7C600 546 660 559 720 562C780 565 840 558 870 554.5L900 551L900 601L870 601C840 601 780 601 720 601C660 601 600 601 540 601C480 601 420 601 360 601C300 601 240 601 180 601C120 601 60 601 30 601L0 601Z" fill="#d53867"></path><path d="M0 570L30 567.7C60 565.3 120 560.7 180 560.7C240 560.7 300 565.3 360 569C420 572.7 480 575.3 540 575.2C600 575 660 572 720 569.2C780 566.3 840 563.7 870 562.3L900 561L900 601L870 601C840 601 780 601 720 601C660 601 600 601 540 601C480 601 420 601 360 601C300 601 240 601 180 601C120 601 60 601 30 601L0 601Z" fill="#c62368"></path></svg>